#!OML:ASF H:\Not Pregnant\Project 1\Capture day 1\Session 1\non-pregnant.ASF
:FULLY-SPECIFIED
:DEGREES
961
root -5.3343 16.4011 -26.2665 89.4872 -86.5448 -77.4311
lowerback -3.15693 0.165858 0.0111005
upperback -9.30222 -0.0946383 0.669968
thorax -7.9632 -0.170391 0.722567
lowerneck 17.7452 -11.4156 -30.3489
upperneck -2.60859 -23.1912 37.3237
head 5.03196 -13.6491 17.336
rclavicle -4.96962e-016 -4.77083e-015
rhumerus -57.114 -33.8911 -45.9462
rradius 23.4809
rwrist 35.487
rhand -5.35307 4.28404
rfingers 7.12502
rthumb 20.4542 -24.6586
lclavicle -4.96962e-016 -4.77083e-015
lhumerus -45.219 5.35796 68.1028
lradius 31.0014
lwrist 34.732
lhand -17.2151 -12.698
lfingers 7.12502
lthumb 9.02776 17.0888
rfemur -15.4792 2.86525 -1.81123
rtibia 21.5809
rfoot -6.55004 9.59824
rtoes -39.183
lfemur -19.5399 3.40882 -3.39621
ltibia 33.167
lfoot -19.2582 1.66466
ltoes -37.273
962
root -5.34141 16.3945 -26.3954 91.9778 -86.876 -79.9583
lowerback -3.11974 0.226999 -0.172136
upperback -9.33421 -0.0281325 0.4858
thorax -8.02117 -0.132326 0.629251
lowerneck 17.5951 -11.3383 -30.4714
upperneck -2.56847 -23.0726 37.3563
head 5.04785 -13.5806 17.3899
rclavicle 4.96962e-016 -4.37326e-015
rhumerus -56.7712 -33.8023 -46.4528
rradius 23.465
rwrist 35.5021
rhand -4.67808 4.35417
rfingers 7.12502
rthumb 21.1027 -24.5175
lclavicle 4.96962e-016 -4.37326e-015
lhumerus -45.6127 6.04345 67.1756
lradius 30.7003
lwrist 34.4546
lhand -17.5927 -12.5292
lfingers 7.12502
lthumb 8.6634 17.273
rfemur -15.6524 2.40712 -1.42473
rtibia 22.109
rfoot -7.94991 9.02124
rtoes -38.8329
lfemur -19.1528 3.09021 -3.17792
ltibia 32.6778
lfoot -18.7396 1.85244
ltoes -37.6039
963
root -5.34732 16.3894 -26.5258 95.1462 -87.1847 -83.1836
lowerback -3.05263 0.290135 -0.341521
upperback -9.35503 0.0420345 0.306151
thorax -8.08441 -0.0928655 0.532524
lowerneck 17.4507 -11.2621 -30.5874
upperneck -2.55479 -22.9478 37.396
head 5.05322 -13.5099 17.4478
rclavicle -8.44835e-016 3.97569e-015
rhumerus -56.3841 -33.7044 -47.0228
rradius 23.4708
rwrist 35.502
rhand -4.09565 4.42148
rfingers 7.12502
rthumb 21.6621 -24.3867
lclavicle -8.44835e-016 3.97569e-015
lhumerus -46.0236 6.65603 66.2989
lradius 30.4824
lwrist 34.2837
lhand -17.9864 -12.3689
lfingers 7.12502
lthumb 8.28345 17.4487
rfemur -15.8214 2.03547 -1.04189
rtibia 22.6141
rfoot -9.2664 8.48613
rtoes -38.5291
lfemur -18.7346 2.79185 -2.94342
ltibia 32.1643
lfoot -18.1709 1.98717
ltoes -37.8613
964
root -5.35231 16.386 -26.658 99.2351 -87.4661 -87.3442
lowerback -2.96852 0.357274 -0.504363
upperback -9.36455 0.118114 0.129386
thorax -8.14527 -0.0505191 0.43456
lowerneck 17.3176 -11.1889 -30.6891
upperneck -2.5712 -22.8192 37.4443
head 5.04618 -13.4389 17.5091
rclavicle -2.5842e-015 1.55052e-014
rhumerus -55.9683 -33.6084 -47.6436
rradius 23.4994
rwrist 35.4848
rhand -3.6051 4.47927
rfingers 7.12502
rthumb 22.1331 -24.2738
lclavicle -2.5842e-015 1.55052e-014
lhumerus -46.4473 7.22839 65.4577
lradius 30.3437
lwrist 34.175
lhand -18.3618 -12.2233
lfingers 7.12502
lthumb 7.92118 17.6083
rfemur -15.9954 1.71808 -0.658812
rtibia 23.104
rfoot -10.5014 8.02459
rtoes -38.2168
lfemur -18.2938 2.52119 -2.69191
ltibia 31.6366
lfoot -17.557 2.05771
ltoes -38.0056
965
root -5.35636 16.3843 -26.7908 104.283 -87.6904 -92.4672
lowerback -2.87942 0.420389 -0.623217
upperback -9.3634 0.190843 -0.0295592
thorax -8.19702 -0.0121544 0.330552
lowerneck 17.1711 -11.1149 -30.7954
upperneck -2.60033 -22.6814 37.4938
head 5.03512 -13.3618 17.5724
rclavicle 9.93923e-017 1.19271e-014
rhumerus -55.4953 -33.5032 -48.3186
rradius 23.5387
rwrist 35.4617
rhand -3.2654 4.52519
rfingers 7.12502
rthumb 22.4592 -24.1889
lclavicle 9.93923e-017 1.19271e-014
lhumerus -46.8944 7.77648 64.6605
lradius 30.285
lwrist 34.1428
lhand -18.7136 -12.1057
lfingers 7.12502
lthumb 7.5816 17.7385
rfemur -16.1797 1.4178 -0.248284
rtibia 23.5765
rfoot -11.6548 7.65572
rtoes -37.8701
lfemur -17.8503 2.26597 -2.40158
ltibia 31.1088
lfoot -16.8979 2.097
ltoes -38.0709
966
root -5.35943 16.3841 -26.9241 110.37 -87.8426 -98.6312
lowerback -2.79074 0.491579 -0.686107
upperback -9.34989 0.277075 -0.173026
thorax -8.23453 0.0296274 0.210679
lowerneck 17.018 -11.0477 -30.9069
upperneck -2.65028 -22.5457 37.5461
head 5.0214 -13.2848 17.6359
rclavicle 2.78299e-015 -1.98785e-015
rhumerus -54.9832 -33.4056 -49.021
rradius 23.5848
rwrist 35.4266
rhand -3.09986 4.55989
rfingers 7.12502
rthumb 22.6181 -24.1349
lclavicle 2.78299e-015 -1.98785e-015
lhumerus -47.3479 8.3089 63.9134
lradius 30.2986
lwrist 34.1601
lhand -18.9873 -12.004
lfingers 7.12502
lthumb 7.31739 17.8494
rfemur -16.3751 1.13816 0.199446
rtibia 24.0287
rfoot -12.7305 7.37578
rtoes -37.4681
lfemur -17.4082 2.06229 -2.06669
ltibia 30.5906
lfoot -16.2033 2.10776
ltoes -38.118
967
root -5.36132 16.3853 -27.0577 116.953 -87.9051 -105.28
lowerback -2.71272 0.575827 -0.678028
upperback -9.32934 0.383508 -0.304734
thorax -8.25724 0.0766897 0.0624441
lowerneck 16.8721 -10.9894 -31.0079
upperneck -2.72709 -22.4144 37.6024
head 4.99989 -13.2106 17.6981
rclavicle -5.86415e-015 3.97569e-016
rhumerus -54.4496 -33.3205 -49.7483
rradius 23.6359
rwrist 35.3598
rhand -3.14337 4.57043
rfingers 7.12502
rthumb 22.5764 -24.1295
lclavicle -5.86415e-015 3.97569e-016
lhumerus -47.7924 8.79721 63.223
lradius 30.3728
lwrist 34.2368
lhand -19.1797 -11.9283
lfingers 7.12502
lthumb 7.13172 17.9316
rfemur -16.5869 0.882383 0.701244
rtibia 24.4534
rfoot -13.7312 7.17078
rtoes -37.0293
lfemur -16.9885 1.92328 -1.67379
ltibia 30.095
lfoot -15.477 2.10622
ltoes -38.2252
968
root -5.36193 16.3879 -27.192 123.267 -87.8799 -111.645
lowerback -2.64625 0.673431 -0.600051
upperback -9.30478 0.510193 -0.430428
thorax -8.26746 0.128844 -0.119536
lowerneck 16.7345 -10.9404 -31.0849
upperneck -2.82591 -22.2881 37.6614
head 4.9698 -13.1396 17.7563
rclavicle 9.93923e-017 -3.18055e-015
rhumerus -53.9222 -33.2728 -50.4806
rradius 23.6971
rwrist 35.2728
rhand -3.38483 4.55654
rfingers 7.12502
rthumb 22.3446 -24.1713
lclavicle 9.93923e-017 -3.18055e-015
lhumerus -48.2179 9.20158 62.6039
lradius 30.5043
lwrist 34.4029
lhand -19.255 -11.8484
lfingers 7.12502
lthumb 7.05902 18.0139
rfemur -16.8169 0.669385 1.25623
rtibia 24.8542
rfoot -14.6579 7.01856
rtoes -36.5482
lfemur -16.598 1.84983 -1.22191
ltibia 29.6251
lfoot -14.7212 2.0863
ltoes -38.3789
969
root -5.36117 16.3915 -27.3266 128.568 -87.7708 -116.982
lowerback -2.59351 0.771508 -0.459795
upperback -9.27305 0.641674 -0.524909
thorax -8.26027 0.18029 -0.30368
lowerneck 16.5738 -10.897 -31.1915
upperneck -2.92558 -22.1677 37.7203
head 4.95005 -13.0688 17.8153
rclavicle -1.54058e-015 9.93923e-015
rhumerus -53.3353 -33.2062 -51.2453
rradius 23.7598
rwrist 35.1305
rhand -3.77948 4.50938
rfingers 7.12502
rthumb 21.9657 -24.2635
lclavicle -1.54058e-015 9.93923e-015
lhumerus -48.6436 9.56349 62.0761
lradius 30.6976
lwrist 34.6671
lhand -19.2147 -11.7524
lfingers 7.12502
lthumb 7.09794 18.1085
rfemur -17.0621 0.507946 1.86944
rtibia 25.2292
rfoot -15.5093 6.91143
rtoes -36.0384
lfemur -16.2408 1.83379 -0.705699
ltibia 29.1876
lfoot -13.9386 2.0512
ltoes -38.5824
970
root -5.35926 16.396 -27.4622 133.201 -87.6212 -121.624
lowerback -2.56757 0.871137 -0.30866
upperback -9.23766 0.7767 -0.604545
thorax -8.23243 0.233414 -0.478181
lowerneck 16.3986 -10.8563 -31.3098
upperneck -3.02908 -22.0468 37.7793
head 4.93326 -12.996 17.8748
rclavicle 3.47873e-015 5.56597e-015
rhumerus -52.7183 -33.1431 -52.025
rradius 23.8349
rwrist 34.9396
rhand -4.30697 4.42931
rfingers 7.12502
rthumb 21.4592 -24.4021
lclavicle 3.47873e-015 5.56597e-015
lhumerus -49.0609 9.92612 61.6008
lradius 30.9324
lwrist 34.9568
lhand -19.0558 -11.6551
lfingers 7.12502
lthumb 7.25127 18.2006
rfemur -17.3338 0.396578 2.49332
rtibia 25.5831
rfoot -16.2886 6.84269
rtoes -35.5372
lfemur -15.9259 1.87127 -0.168889
ltibia 28.7827
lfoot -13.1317 1.97558
ltoes -38.7397
971
root -5.35623 16.4012 -27.5976 136.625 -87.4186 -125.041
lowerback -2.55673 0.98297 -0.105302
upperback -9.19918 0.930311 -0.674752
thorax -8.19039 0.292538 -0.672478
lowerneck 16.2251 -10.8257 -31.4157
upperneck -3.14329 -21.9352 37.8383
head 4.91517 -12.9279 17.9294
rclavicle -3.8763e-015 -3.97569e-016
rhumerus -52.1042 -33.1072 -52.7821
rradius 23.928
rwrist 34.712
rhand -4.84794 4.33897
rfingers 7.12502
rthumb 20.9395 -24.5508
lclavicle -3.8763e-015 -3.97569e-016
lhumerus -49.4608 10.2589 61.1944
lradius 31.2069
lwrist 35.2588
lhand -18.8823 -11.5821
lfingers 7.12502
lthumb 7.4188 18.2679
rfemur -17.6172 0.351161 3.15584
rtibia 25.9146
rfoot -16.998 6.7877
rtoes -35.0693
lfemur -15.6451 1.93111 0.417266
ltibia 28.4142
lfoot -12.2999 1.87672
ltoes -38.8066
972
root -5.35221 16.4071 -27.733 139.311 -87.1858 -127.705
lowerback -2.56261 1.08634 0.112895
upperback -9.15629 1.07438 -0.723164
thorax -8.13271 0.347117 -0.851239
lowerneck 16.0278 -10.7894 -31.5406
upperneck -3.24352 -21.8142 37.8945
head 4.90357 -12.8525 17.9866
rclavicle 1.19271e-015 -9.54166e-015
rhumerus -51.4371 -33.0375 -53.5667
rradius 24.0308
rwrist 34.4469
rhand -5.44639 4.24136
rfingers 7.12502
rthumb 20.3645 -24.7109
lclavicle 1.19271e-015 -9.54166e-015
lhumerus -49.865 10.6168 60.8281
lradius 31.5084
lwrist 35.5732
lhand -18.6929 -11.5352
lfingers 7.12502
lthumb 7.60153 18.3082
rfemur -17.9135 0.354694 3.82954
rtibia 26.2294
rfoot -17.6465 6.77269
rtoes -34.6246
lfemur -15.3937 2.02813 1.02706
ltibia 28.0798
lfoot -11.4452 1.73643
ltoes -38.7534
973
root -5.34686 16.4137 -27.8677 141.102 -86.9273 -129.467
lowerback -2.5702 1.20549 0.36848
upperback -9.11328 1.24005 -0.779783
thorax -8.07138 0.409641 -1.0602
lowerneck 15.8651 -10.7625 -31.6141
upperneck -3.36684 -21.7023 37.9548
head 4.87665 -12.7854 18.0376
rclavicle 1.51076e-014 -1.15295e-014
rhumerus -50.7966 -32.9889 -54.3379
rradius 24.1613
rwrist 34.1135
rhand -5.96094 4.13563
rfingers 7.12502
rthumb 19.8699 -24.8686
lclavicle 1.51076e-014 -1.15295e-014
lhumerus -50.2355 10.9465 60.505
lradius 31.8228
lwrist 35.8439
lhand -18.5457 -11.5579
lfingers 7.12502
lthumb 7.74367 18.2803
rfemur -18.2082 0.438349 4.52132
rtibia 26.5259
rfoot -18.2321 6.74825
rtoes -34.2135
lfemur -15.172 2.12604 1.66656
ltibia 27.7833
lfoot -10.5582 1.59754
ltoes -38.6109
974
root -5.34032 16.4214 -28.0016 142.477 -86.6576 -130.808
lowerback -2.57687 1.31906 0.628946
upperback -9.06787 1.39951 -0.818557
thorax -8.00692 0.469935 -1.25258
lowerneck 15.6912 -10.7291 -31.7122
upperneck -3.47555 -21.586 38.0163
head 4.85763 -12.7151 18.0946
rclavicle 1.39149e-014 6.75868e-015
rhumerus -50.102 -32.8752 -55.1404
rradius 24.3021
rwrist 33.7103
rhand -6.48868 4.02448
rfingers 7.12502
rthumb 19.3625 -25.0315
lclavicle 1.39149e-014 6.75868e-015
lhumerus -50.6115 11.3176 60.2164
lradius 32.1538
lwrist 36.0682
lhand -18.4075 -11.6108
lfingers 7.12502
lthumb 7.87703 18.2225
rfemur -18.503 0.576497 5.20977
rtibia 26.8118
rfoot -18.7591 6.74029
rtoes -33.7966
lfemur -14.9746 2.2426 2.31012
ltibia 27.524
lfoot -9.64291 1.4516
ltoes -38.364
